<?xml version="1.0" encoding="UTF-8" standalone="no"?>
<svg
   xmlns:dc="http://purl.org/dc/elements/1.1/"
   xmlns:cc="http://creativecommons.org/ns#"
   xmlns:rdf="http://www.w3.org/1999/02/22-rdf-syntax-ns#"
   xmlns:svg="http://www.w3.org/2000/svg"
   xmlns="http://www.w3.org/2000/svg"
   xmlns:sodipodi="http://sodipodi.sourceforge.net/DTD/sodipodi-0.dtd"
   xmlns:inkscape="http://www.inkscape.org/namespaces/inkscape"
   width="32"
   height="32"
   version="1"
   id="svg32"
   sodipodi:docname="syncthinggtk_94516.svg"
   inkscape:version="0.92.4 5da689c313, 2019-01-14"
   inkscape:export-filename="/home/galilley/Programming/lab17/syncthing-pyselective/syncthing_pysel2.png"
   inkscape:export-xdpi="1536"
   inkscape:export-ydpi="1536">
  <metadata
     id="metadata38">
    <rdf:RDF>
      <cc:Work
         rdf:about="">
        <dc:format>image/svg+xml</dc:format>
        <dc:type
           rdf:resource="http://purl.org/dc/dcmitype/StillImage" />
        <dc:title></dc:title>
      </cc:Work>
    </rdf:RDF>
  </metadata>
  <defs
     id="defs36" />
  <sodipodi:namedview
     pagecolor="#ffffff"
     bordercolor="#666666"
     borderopacity="1"
     objecttolerance="10"
     gridtolerance="10"
     guidetolerance="10"
     inkscape:pageopacity="0"
     inkscape:pageshadow="2"
     inkscape:window-width="1440"
     inkscape:window-height="851"
     id="namedview34"
     showgrid="false"
     inkscape:zoom="10.429825"
     inkscape:cx="11.896181"
     inkscape:cy="14.017987"
     inkscape:window-x="0"
     inkscape:window-y="0"
     inkscape:window-maximized="1"
     inkscape:current-layer="svg32">
    <inkscape:grid
       type="xygrid"
       id="grid4586"
       dotted="false"
       spacingx="0.5"
       spacingy="0.5" />
  </sodipodi:namedview>
  <rect
     width="28"
     height="28"
     x="-30"
     y="-30"
     rx="14"
     ry="14"
     transform="matrix(0,-1,-1,0,0,0)"
     id="rect2"
     style="fill:#1ca4d4" />
  <path
     style="fill:#9a41ff;fill-opacity:1;fill-rule:evenodd;stroke:none;stroke-width:1px;stroke-linecap:butt;stroke-linejoin:miter;stroke-opacity:1"
     d="M 18,17.5 7.1023,18.2873 c 1.3357922,6.246764 9.296014,9.428594 14.662208,5.083601 z"
     id="path4569"
     inkscape:connector-curvature="0"
     sodipodi:nodetypes="cccc" />
  <path
     style="fill:#ff7e00;fill-opacity:1;fill-rule:evenodd;stroke:none;stroke-width:1px;stroke-linecap:butt;stroke-linejoin:miter;stroke-opacity:1"
     d="m 18,17 6.459522,-4.771332 C 20,2 5,6.5 6.8250685,17.691745 Z"
     id="path4569-0"
     inkscape:connector-curvature="0"
     sodipodi:nodetypes="cccc" />
  <path
     opacity=".2"
     d="m16 7a10 10 0 0 0 -10 10 10 10 0 0 0 10 10 10 10 0 0 0 10 -10 10 10 0 0 0 -0.615 -3.414l0.02148-0.01563-0.05273-0.07422a10 10 0 0 0 -9.354 -6.496zm0 1a9 9 0 0 1 7.9883 4.8613l-6.24 4.459-10.646 0.967a9 9 0 0 1 -0.102 -1.287 9 9 0 0 1 9 -9zm8.5391 6.1895a9 9 0 0 1 0.461 2.81 9 9 0 0 1 -2.607 6.326l-3.4336-5.1504 5.5801-3.9863zm-6.8906 4.5449 3.6738 5.5098a9 9 0 0 1 -5.322 1.755 9 9 0 0 1 -8.5859 -6.334l10.234-0.932z"
     id="path4" />
  <path
     fill="#fff"
     d="m16 6a10 10 0 0 0 -10 10 10 10 0 0 0 10 10 10 10 0 0 0 10 -10 10 10 0 0 0 -0.615 -3.414l0.021-0.016-0.052-0.074a10 10 0 0 0 -9.354 -6.496zm0 1a9 9 0 0 1 7.988 4.861l-6.24 4.459-10.646 0.967a9 9 0 0 1 -0.102 -1.287 9 9 0 0 1 9 -9zm8.539 6.189a9 9 0 0 1 0.461 2.811 9 9 0 0 1 -2.607 6.326l-3.434-5.15 5.58-3.987zm-6.891 4.545l3.674 5.51a9 9 0 0 1 -5.322 1.756 9 9 0 0 1 -8.5859 -6.334l10.234-0.932z"
     id="path6" />
  <g
     opacity=".2"
     transform="translate(0,1)"
     id="g16">
    <circle
       cx="7"
       cy="18"
       r="2"
       id="circle8" />
    <circle
       cx="22"
       cy="23"
       r="2"
       id="circle10" />
    <circle
       cx="25"
       cy="12"
       r="2"
       id="circle12" />
    <circle
       cx="18"
       cy="17"
       r="2"
       id="circle14" />
  </g>
  <g
     id="g26"
     style="fill:#ffffff">
    <circle
       cx="7"
       cy="18"
       r="2"
       id="circle18" />
    <circle
       cx="22"
       cy="23"
       r="2"
       id="circle20" />
    <circle
       cx="25"
       cy="12"
       r="2"
       id="circle22" />
    <circle
       cx="18"
       cy="17"
       r="2"
       id="circle24" />
  </g>
  <path
     d="M 16,2 C 8.244,2 2,8.244 2,16 2,16.169 2.0195,16.333 2.0254,16.5 2.2891,8.9794 8.4128,3 16.0004,3 c 7.587,0 13.711,5.9794 13.975,13.5 0.005,-0.167 0.025,-0.331 0.025,-0.5 0,-7.756 -6.244,-14 -14,-14 z"
     id="path28"
     inkscape:connector-curvature="0"
     style="opacity:0.2;fill:#ffffff" />
  <path
     opacity=".2"
     d="m2.0254 16.5c-0.0059 0.167-0.0254 0.331-0.0254 0.5 0 7.756 6.244 14 14 14s14-6.244 14-14c0-0.16884-0.01952-0.33264-0.02539-0.5-0.264 7.521-6.388 13.5-13.975 13.5-7.5872 0-13.711-5.979-13.975-13.5z"
     id="path30" />
</svg>
